<svg xmlns="http://www.w3.org/2000/svg" xmlns:xlink="http://www.w3.org/1999/xlink" width="29" height="30" viewBox="0 0 29 30">
  <defs>
    <clipPath id="clip-path">
      <rect id="Rectangle_19" data-name="Rectangle 19" width="21.481" height="18.347" fill="#b6b6b6"/>
    </clipPath>
  </defs>
  <g id="Group_47" data-name="Group 47" transform="translate(0.013 0.329)">
    <rect id="Rectangle_23" data-name="Rectangle 23" width="29" height="30" transform="translate(-0.013 -0.329)" fill="rgba(255,0,0,0)"/>
    <g id="Group_43" data-name="Group 43" transform="translate(4.477 5.668)">
      <g id="Group_42" data-name="Group 42" clip-path="url(#clip-path)">
        <path id="Path_4" data-name="Path 4" d="M7.218,1.54H4.967c-.352,0-.7,0-1.056,0A.763.763,0,1,1,3.9.012c2.929,0,5.86-.033,8.788.015a8.6,8.6,0,0,1,5.4,2.04A8.861,8.861,0,0,1,21.276,7.3a8.916,8.916,0,0,1-1.851,7.648,8.851,8.851,0,0,1-5.313,3.219,8.993,8.993,0,0,1-1.724.174c-3.83.015-7.66.008-11.49.007a.765.765,0,1,1-.04-1.527q3.074,0,6.149,0h.2L7.1,16.723c-.319-.255-.637-.512-.96-.761a.364.364,0,0,0-.206-.072c-1,0-2.008,0-3.012-.005a.719.719,0,0,1-.689-.445.732.732,0,0,1,.107-.814.749.749,0,0,1,.616-.272c.528,0,1.056,0,1.584,0h.2a9.167,9.167,0,0,1-.408-9.7c-.074,0-.128-.008-.181-.008-1.128,0-2.257,0-3.385,0a.762.762,0,0,1-.188-1.5A1.115,1.115,0,0,1,.85,3.119q2.213,0,4.425,0a.306.306,0,0,0,.253-.111A8.987,8.987,0,0,1,7.1,1.631c.028-.02.054-.042.118-.092M17.874,9.183a5.568,5.568,0,1,0-5.593,5.559,5.574,5.574,0,0,0,5.593-5.559" transform="translate(0 -0.001)" fill="#b6b6b6"/>
        <path id="Path_5" data-name="Path 5" d="M271.19,160.149a4.271,4.271,0,0,1,3.272-2.368v.416c0,.486,0,.972,0,1.458a.151.151,0,0,1-.124.175,2.362,2.362,0,0,0-1.172.852.173.173,0,0,1-.145.061c-.609-.192-1.216-.392-1.834-.594" transform="translate(-262.767 -152.88)" fill="#b6b6b6"/>
        <path id="Path_6" data-name="Path 6" d="M457.72,271.492a4.371,4.371,0,0,1-1.257,3.861l-1.188-1.635a2.485,2.485,0,0,0,.52-1.6l1.925-.627" transform="translate(-441.133 -263.06)" fill="#b6b6b6"/>
        <path id="Path_7" data-name="Path 7" d="M334.91,368.5a4.385,4.385,0,0,1-4.061,0l.464-.639c.219-.3.439-.6.655-.905a.14.14,0,0,1,.19-.065,2.353,2.353,0,0,0,1.464,0,.159.159,0,0,1,.14.029c.381.515.756,1.035,1.15,1.578" transform="translate(-320.573 -355.482)" fill="#b6b6b6"/>
        <path id="Path_8" data-name="Path 8" d="M256.056,271.742l1.912.621a2.271,2.271,0,0,0,.218,1.1,1.348,1.348,0,0,0,.185.32c.118.129.082.219-.009.342-.358.479-.707.966-1.059,1.45a4.281,4.281,0,0,1-1.247-3.836" transform="translate(-248.006 -263.302)" fill="#b6b6b6"/>
        <path id="Path_9" data-name="Path 9" d="M415.892,157.7a4.267,4.267,0,0,1,3.255,2.37c-.092.031-.182.063-.273.092-.505.164-1.011.324-1.515.494a.152.152,0,0,1-.2-.066,2.307,2.307,0,0,0-1.159-.842c-.068-.023-.119-.037-.118-.129,0-.62,0-1.241,0-1.861a.311.311,0,0,1,.011-.059" transform="translate(-402.961 -152.801)" fill="#b6b6b6"/>
        <path id="Path_10" data-name="Path 10" d="M362.337,260.6a1.111,1.111,0,0,1-1.139,1.1,1.119,1.119,0,1,1,.044-2.237,1.112,1.112,0,0,1,1.095,1.133" transform="translate(-348.914 -251.408)" fill="#b6b6b6"/>
      </g>
    </g>
  </g>
</svg>
