<svg xmlns="http://www.w3.org/2000/svg" width="30" height="30" viewBox="0 0 30 30">
  <g id="Group_45" data-name="Group 45" transform="translate(0.402 0.329)">
    <rect id="Rectangle_21" data-name="Rectangle 21" width="30" height="30" transform="translate(-0.402 -0.329)" fill="rgba(255,0,0,0)"/>
    <path id="Icon_open-dashboard" data-name="Icon open-dashboard" d="M10.741,0A10.741,10.741,0,1,0,21.481,10.741,10.772,10.772,0,0,0,10.741,0Zm0,2.685a8.056,8.056,0,1,1-8.056,8.056A8.045,8.045,0,0,1,10.741,2.685Zm0,2.685a1.343,1.343,0,1,0,1.343,1.343A1.33,1.33,0,0,0,10.741,5.37ZM6.283,8.056a1.343,1.343,0,0,0-.51,2.256l2.444,2.444a2.727,2.727,0,0,0-.161.671,2.685,2.685,0,1,0,2.685-2.685,2.727,2.727,0,0,0-.671.161L7.626,8.458a1.343,1.343,0,0,0-1.181-.43,1.342,1.342,0,0,0-.161,0Zm8.485,0A1.343,1.343,0,1,0,16.111,9.4,1.33,1.33,0,0,0,14.768,8.056Z" transform="translate(4.114 4.016)" fill="#b6b6b6"/>
  </g>
</svg>
