<svg xmlns="http://www.w3.org/2000/svg" xmlns:xlink="http://www.w3.org/1999/xlink" width="30" height="30" viewBox="0 0 30 30">
  <defs>
    <clipPath id="clip-path">
      <rect id="Rectangle_18" data-name="Rectangle 18" width="21.481" height="18.157" fill="#b6b6b6"/>
    </clipPath>
  </defs>
  <g id="Group_46" data-name="Group 46" transform="translate(0.182 0.329)">
    <rect id="Rectangle_22" data-name="Rectangle 22" width="30" height="30" transform="translate(-0.182 -0.329)" fill="rgba(255,0,0,0)"/>
    <g id="Group_41" data-name="Group 41" transform="translate(3.821 5.668)">
      <g id="Group_40" data-name="Group 40" clip-path="url(#clip-path)">
        <path id="Path_3" data-name="Path 3" d="M9.909,9.926H3.338c0,1.088-.017,2.153.019,3.217,0,.144.255.308.422.415a2.467,2.467,0,0,1-1.285,4.581A2.427,2.427,0,0,1,.107,16.352a2.4,2.4,0,0,1,1.187-2.835.625.625,0,0,0,.378-.64q-.019-3.813,0-7.626a.627.627,0,0,0-.393-.631A2.431,2.431,0,0,1,.14,1.661a2.484,2.484,0,0,1,4.828.679,2.294,2.294,0,0,1-1.21,2.231.756.756,0,0,0-.429.8c.021.93.007,1.861.007,2.832H9.871V4.825C8.515,4.034,8.011,3.05,8.347,1.83a2.483,2.483,0,0,1,4.77-.072,2.356,2.356,0,0,1-1.059,2.778.875.875,0,0,0-.493.937c.021.892.006,1.785.006,2.768h1.307c1.172,0,2.343.007,3.515,0a1.64,1.64,0,0,0,1.752-1.747c0-.139-.008-.279,0-.417A1.627,1.627,0,0,0,17.391,4.3,2.218,2.218,0,0,1,16.7,1.526,2.446,2.446,0,0,1,19.275.014,2.464,2.464,0,0,1,20.3,4.567c-.151.094-.308.178-.49.283,0,.606.015,1.222,0,1.836A3.267,3.267,0,0,1,16.5,9.9c-1.43.011-2.86,0-4.29,0h-.641c0,1.1-.019,2.149.02,3.194.006.159.261.343.439.456a2.467,2.467,0,0,1,1,3.062A2.481,2.481,0,0,1,8.253,15.6a2.361,2.361,0,0,1,1.283-2.077.6.6,0,0,0,.381-.635c-.022-.969-.008-1.939-.008-2.96" transform="translate(0 0.001)" fill="#b6b6b6"/>
      </g>
    </g>
  </g>
</svg>
